# xmcd
#
# Track frame offsets:
#	300
#	17389
#	33902
#	49915
#	67052
#
# Disc length: 1085 seconds
#
# Revision: 1
# Processed by: cddbd v1.5.2PL0 Copyright (c) Steve Scherf et al.
# Submitted via: audiograbber 1.83.01
#
DISCID=3b043905
DTITLE=Rachel Dawson - Walk On
DYEAR=2016
DGENRE=Country
TTITLE0=HOW WAS YOUR DAY
TTITLE1=1974
TTITLE2=WALK ON
TTITLE3=THE CAGE
TTITLE4=SURE HATE TO LOVE YOU THIS WAY
EXTD=
EXTT0=
EXTT1=
EXTT2=
EXTT3=
EXTT4=
PLAYORDER=
